<svg t="1680854011748" class="icon" viewBox="0 0 1024 1024" version="1.1" xmlns="http://www.w3.org/2000/svg" p-id="2612"
    width="200" height="200">
    <path
        d="M896 384C896 172 724 0 512 0S128 172 128 384v448h768z m-192-16a32 32 0 0 1-32 32h-112v256a32 32 0 0 1-32 32h-32a32 32 0 0 1-32-32V400h-112a32 32 0 0 1-32-32v-32a32 32 0 0 1 32-32h112v-96a32 32 0 0 1 32-32h32a32 32 0 0 1 32 32v96h112a32 32 0 0 1 32 32z"
        opacity=".4" p-id="2613"></path>
    <path
        d="M992 896H32a32 32 0 0 0-32 32v64a32 32 0 0 0 32 32h960a32 32 0 0 0 32-32v-64a32 32 0 0 0-32-32zM352 400h112v256a32 32 0 0 0 32 32h32a32 32 0 0 0 32-32V400h112a32 32 0 0 0 32-32v-32a32 32 0 0 0-32-32h-112v-96a32 32 0 0 0-32-32h-32a32 32 0 0 0-32 32v96h-112a32 32 0 0 0-32 32v32a32 32 0 0 0 32 32z"
        p-id="2614"></path>
</svg>