<svg t="1680854465326" class="icon" viewBox="0 0 1024 1024" version="1.1" xmlns="http://www.w3.org/2000/svg" p-id="5110"
    width="200" height="200">
    <path
        d="M426.666667 1024c-25.6 0-42.666667-17.066667-42.666667-42.666667l0-128c0-25.6 17.066667-42.666667 42.666667-42.666667s42.666667 17.066667 42.666667 42.666667l0 128C469.333333 1006.933333 452.266667 1024 426.666667 1024z"
        p-id="5111"></path>
    <path
        d="M597.333333 1024c-25.6 0-42.666667-17.066667-42.666667-42.666667l0-128c0-25.6 17.066667-42.666667 42.666667-42.666667s42.666667 17.066667 42.666667 42.666667l0 128C640 1006.933333 622.933333 1024 597.333333 1024z"
        p-id="5112"></path>
    <path d="M725.333333 725.333333" p-id="5113"></path>
    <path
        d="M725.333333 1024 298.666667 1024c-25.6 0-42.666667-17.066667-42.666667-42.666667l0-213.333333c-106.666667-81.066667-170.666667-204.8-170.666667-341.333333C85.333333 192 277.333333 0 512 0s426.666667 192 426.666667 426.666667c0 136.533333-64 260.266667-170.666667 341.333333l0 213.333333C768 1006.933333 750.933333 1024 725.333333 1024zM341.333333 938.666667l341.333333 0 0-192c0-12.8 8.533333-25.6 17.066667-34.133333 93.866667-64 153.6-170.666667 153.6-281.6 0-187.733333-153.6-341.333333-341.333333-341.333333s-341.333333 153.6-341.333333 341.333333c0 115.2 55.466667 221.866667 153.6 281.6C332.8 716.8 341.333333 729.6 341.333333 746.666667L341.333333 938.666667z"
        p-id="5114"></path>
    <path
        d="M725.333333 597.333333c-12.8 0-21.333333-4.266667-29.866667-12.8l-128-128c-17.066667-17.066667-17.066667-42.666667 0-59.733333s42.666667-17.066667 59.733333 0l128 128c17.066667 17.066667 17.066667 42.666667 0 59.733333C746.666667 593.066667 738.133333 597.333333 725.333333 597.333333z"
        p-id="5115"></path>
    <path
        d="M597.333333 597.333333c-12.8 0-21.333333-4.266667-29.866667-12.8-17.066667-17.066667-17.066667-42.666667 0-59.733333l128-128c17.066667-17.066667 42.666667-17.066667 59.733333 0s17.066667 42.666667 0 59.733333l-128 128C618.666667 593.066667 610.133333 597.333333 597.333333 597.333333z"
        p-id="5116"></path>
    <path
        d="M426.666667 597.333333c-12.8 0-21.333333-4.266667-29.866667-12.8l-128-128c-17.066667-17.066667-17.066667-42.666667 0-59.733333s42.666667-17.066667 59.733333 0l128 128c17.066667 17.066667 17.066667 42.666667 0 59.733333C448 593.066667 439.466667 597.333333 426.666667 597.333333z"
        p-id="5117"></path>
    <path
        d="M298.666667 597.333333c-12.8 0-21.333333-4.266667-29.866667-12.8-17.066667-17.066667-17.066667-42.666667 0-59.733333l128-128c17.066667-17.066667 42.666667-17.066667 59.733333 0s17.066667 42.666667 0 59.733333l-128 128C320 593.066667 311.466667 597.333333 298.666667 597.333333z"
        p-id="5118"></path>
</svg>