<svg t="1680825952917" class="icon" viewBox="0 0 1024 1024" version="1.1" xmlns="http://www.w3.org/2000/svg" p-id="1692"
    width="1200" height="1200">
    <path
        d="M911.55968 969.91232H175.52896a18.28864 18.28864 0 0 1-18.29888-18.28352v-89.15456c0-10.10688 8.192-18.29376 18.29376-18.29376h736.03584a18.2784 18.2784 0 0 1 18.28864 18.2784v89.1648a18.2784 18.2784 0 0 1-18.2784 18.28864h-0.01024z m-717.73696-36.60288h699.43808v-52.55168H193.82272v52.55168z"
        fill="#fff" p-id="1693"></path>
    <path
        d="M830.42304 880.65024H231.70048a18.29888 18.29888 0 0 1-18.29376-18.29888v-72.51456c0-10.10176 8.192-18.28352 18.29376-18.28352h598.72256a18.28864 18.28864 0 0 1 18.29888 18.28352v72.51456c0 10.10176-8.192 18.29888-18.29888 18.29888z m-580.4288-36.59776h562.12992v-35.92192H249.99424v35.92192z"
        fill="#fff" p-id="1694"></path>
    <path
        d="M751.27296 808.12032h-459.1104a18.28352 18.28352 0 0 1-18.29376-18.2784V277.98016c0-1.45408 0.17408-2.88256 0.50688-4.2752C282.624 143.36 390.62016 41.7536 521.71776 41.7536c136.66816 0 247.84896 111.1808 247.84896 247.84896v500.21888a18.29888 18.29888 0 0 1-18.29376 18.29888z m-440.81664-36.59264h422.51264V289.60768c0-116.49024-94.77632-211.26144-211.26144-211.26144-112.70144 0-205.38368 88.09984-210.97984 200.55552a18.21696 18.21696 0 0 1-0.26624 2.3552v490.27584h-0.00512z"
        fill="#fff" p-id="1695"></path>

</svg>